<svg width="30" height="30" viewBox="0 0 30 30" fill="none" xmlns="http://www.w3.org/2000/svg">
<path fill-rule="evenodd" clip-rule="evenodd" d="M7.86612 7.86612C8.35427 7.37796 9.14573 7.37796 9.63388 7.86612L15 13.2322L20.3661 7.86612C20.8543 7.37796 21.6457 7.37796 22.1339 7.86612C22.622 8.35427 22.622 9.14573 22.1339 9.63388L16.7678 15L22.1339 20.3661C22.622 20.8543 22.622 21.6457 22.1339 22.1339C21.6457 22.622 20.8543 22.622 20.3661 22.1339L15 16.7678L9.63388 22.1339C9.14573 22.622 8.35427 22.622 7.86612 22.1339C7.37796 21.6457 7.37796 20.8543 7.86612 20.3661L13.2322 15L7.86612 9.63388C7.37796 9.14573 7.37796 8.35427 7.86612 7.86612Z" fill="currentColor" stroke="currentColor" stroke-width="2" stroke-linecap="round" stroke-linejoin="round"/>
</svg>
