<svg width="32" height="32" viewBox="0 0 32 32" fill="none" xmlns="http://www.w3.org/2000/svg">
<path fill-rule="evenodd" clip-rule="evenodd" d="M29.5725 13.8425L29.4312 13.2431H16.4038V18.7569H24.1875C23.3794 22.5944 19.6294 24.6144 16.5662 24.6144C14.3375 24.6144 11.9881 23.6769 10.4331 22.17C8.77617 20.5387 7.83623 18.3152 7.82062 15.99C7.82062 13.6675 8.86438 11.3444 10.3831 9.81625C11.9019 8.28813 14.1956 7.43313 16.4762 7.43313C19.0881 7.43313 20.96 8.82 21.66 9.4525L25.5781 5.555C24.4287 4.545 21.2712 2 16.35 2C12.5531 2 8.9125 3.45438 6.25125 6.10687C3.625 8.71875 2.26562 12.4956 2.26562 16C2.26562 19.5044 3.55187 23.0925 6.09687 25.725C8.81625 28.5325 12.6675 30 16.6331 30C20.2413 30 23.6612 28.5863 26.0987 26.0212C28.495 23.4963 29.7344 20.0025 29.7344 16.34C29.7344 14.7981 29.5794 13.8825 29.5725 13.8425Z" fill="#E94057"/>
</svg>
