<svg width="14" height="14" viewBox="0 0 14 14" fill="none" xmlns="http://www.w3.org/2000/svg">
<path d="M7 0.583252C9.73842 0.583252 11.9583 2.80316 11.9583 5.54158C11.9583 7.28317 11.1546 9.04429 9.81096 10.7628C9.33408 11.3727 8.81545 11.9413 8.28412 12.4593C8.24035 12.502 8.19731 12.5435 8.15504 12.5839L7.91124 12.8126L7.68869 13.0132L7.48991 13.1849L7.36851 13.2854C7.15548 13.459 6.85018 13.4604 6.63559 13.2888L6.50866 13.1837L6.31079 13.0128L6.08865 12.8125L5.84495 12.5839L5.71587 12.4593C5.18455 11.9413 4.66592 11.3727 4.18903 10.7628C2.84538 9.04429 2.04166 7.28317 2.04166 5.54158C2.04166 2.80316 4.26158 0.583252 7 0.583252ZM7 1.74992C4.90591 1.74992 3.20833 3.4475 3.20833 5.54158C3.20833 6.97434 3.90996 8.51176 5.10811 10.0441C5.55047 10.6099 6.03437 11.1405 6.53026 11.6239L6.76518 11.8486C6.84258 11.9213 6.92009 11.994 7 12.0638L7.23479 11.8487L7.46974 11.6239C7.96562 11.1405 8.44952 10.6099 8.89189 10.0441C10.09 8.51176 10.7917 6.97434 10.7917 5.54158C10.7917 3.4475 9.09409 1.74992 7 1.74992ZM7 3.20825C8.28866 3.20825 9.33333 4.25292 9.33333 5.54158C9.33333 6.83025 8.28866 7.87492 7 7.87492C5.71134 7.87492 4.66666 6.83025 4.66666 5.54158C4.66666 4.25292 5.71134 3.20825 7 3.20825ZM7 4.37492C6.35567 4.37492 5.83333 4.89726 5.83333 5.54158C5.83333 6.18591 6.35567 6.70825 7 6.70825C7.64433 6.70825 8.16667 6.18591 8.16667 5.54158C8.16667 4.89726 7.64433 4.37492 7 4.37492Z" fill="white"/>
</svg>
